<svg width="50" height="32" viewBox="0 0 50 32" fill="none" xmlns="http://www.w3.org/2000/svg">
  <path d="M21.7141 9.80843C20.7784 4.04598 18.5715 0 16.0032 0C13.435 0 11.2281 4.04598 10.2924 9.80843H21.7141ZM9.80843 16.0032C9.80843 17.4358 9.88587 18.8102 10.0214 20.1331H21.9786C22.1141 18.8102 22.1916 17.4358 22.1916 16.0032C22.1916 14.5707 22.1141 13.1962 21.9786 11.8734H10.0214C9.88587 13.1962 9.80843 14.5707 9.80843 16.0032ZM30.761 9.80843C28.9155 5.4269 25.1793 2.03912 20.5654 0.671103C22.1399 2.85219 23.224 6.13672 23.7919 9.80843H30.761ZM11.4346 0.671103C6.82718 2.03912 3.08449 5.4269 1.24541 9.80843H8.21456C8.77596 6.13672 9.86005 2.85219 11.4346 0.671103ZM31.4515 11.8734H24.05C24.1855 13.2285 24.263 14.6159 24.263 16.0032C24.263 17.3906 24.1855 18.778 24.05 20.1331H31.4451C31.8 18.8102 32 17.4358 32 16.0032C32 14.5707 31.8 13.1962 31.4515 11.8734ZM7.7435 16.0032C7.7435 14.6159 7.82093 13.2285 7.95644 11.8734H0.554951C0.206493 13.1962 0 14.5707 0 16.0032C0 17.4358 0.206493 18.8102 0.554951 20.1331H7.94999C7.82093 18.778 7.7435 17.3906 7.7435 16.0032ZM10.2924 22.198C11.2281 27.9605 13.435 32.0065 16.0032 32.0065C18.5715 32.0065 20.7784 27.9605 21.7141 22.198H10.2924ZM20.5719 31.3354C25.1793 29.9673 28.922 26.5796 30.7675 22.198H23.7983C23.2305 25.8697 22.1464 29.1543 20.5719 31.3354ZM1.24541 22.198C3.09095 26.5796 6.82718 29.9673 11.441 31.3354C9.86651 29.1543 8.78242 25.8697 8.21456 22.198H1.24541Z" fill="#0A0224"/>
  <path d="M36.8807 32.0063V24.7336H41.2699V25.5149H37.7614V27.9723H41.0426V28.7535H37.7614V31.2251H41.3267V32.0063H36.8807ZM48.6243 24.7336V32.0063H47.772L43.8089 26.2961H43.7379V32.0063H42.8572V24.7336H43.7095L47.6868 30.4581H47.7578V24.7336H48.6243Z" fill="#0A0224"/>
</svg>
