<svg width="50" height="33" viewBox="0 0 50 33" fill="none" xmlns="http://www.w3.org/2000/svg">
<path d="M21.7141 9.81478C20.7784 4.05232 18.5715 0.00634766 16.0032 0.00634766C13.435 0.00634766 11.2281 4.05232 10.2924 9.81478H21.7141ZM9.80843 16.0096C9.80843 17.4421 9.88587 18.8166 10.0214 20.1394H21.9786C22.1141 18.8166 22.1916 17.4421 22.1916 16.0096C22.1916 14.577 22.1141 13.2026 21.9786 11.8797H10.0214C9.88587 13.2026 9.80843 14.577 9.80843 16.0096ZM30.761 9.81478C28.9155 5.43325 25.1793 2.04547 20.5654 0.677451C22.1399 2.85854 23.224 6.14307 23.7919 9.81478H30.761ZM11.4346 0.677451C6.82718 2.04547 3.08449 5.43325 1.24541 9.81478H8.21456C8.77596 6.14307 9.86005 2.85854 11.4346 0.677451ZM31.4515 11.8797H24.05C24.1855 13.2348 24.263 14.6222 24.263 16.0096C24.263 17.397 24.1855 18.7843 24.05 20.1394H31.4451C31.8 18.8166 32 17.4421 32 16.0096C32 14.577 31.8 13.2026 31.4515 11.8797ZM7.7435 16.0096C7.7435 14.6222 7.82093 13.2348 7.95644 11.8797H0.554951C0.206493 13.2026 0 14.577 0 16.0096C0 17.4421 0.206493 18.8166 0.554951 20.1394H7.94999C7.82093 18.7843 7.7435 17.397 7.7435 16.0096ZM10.2924 22.2044C11.2281 27.9668 13.435 32.0128 16.0032 32.0128C18.5715 32.0128 20.7784 27.9668 21.7141 22.2044H10.2924ZM20.5719 31.3417C25.1793 29.9737 28.922 26.5859 30.7675 22.2044H23.7983C23.2305 25.8761 22.1464 29.1606 20.5719 31.3417ZM1.24541 22.2044C3.09095 26.5859 6.82718 29.9737 11.441 31.3417C9.86651 29.1606 8.78242 25.8761 8.21456 22.2044H1.24541Z" fill="#0A0224"/>
<path d="M36.8807 32.0127V24.74H41.2699V25.5212H37.7614V27.9786H41.0426V28.7599H37.7614V31.2314H41.3267V32.0127H36.8807ZM46.8345 26.5581C46.7919 26.1983 46.6191 25.9189 46.3161 25.7201C46.013 25.5212 45.6413 25.4218 45.201 25.4218C44.879 25.4218 44.5973 25.4739 44.3558 25.578C44.1167 25.6822 43.9297 25.8254 43.7947 26.0077C43.6622 26.19 43.5959 26.3972 43.5959 26.6292C43.5959 26.8233 43.642 26.9902 43.7344 27.1299C43.8291 27.2672 43.9498 27.382 44.0966 27.4743C44.2434 27.5643 44.3973 27.6389 44.5582 27.6981C44.7192 27.7549 44.8672 27.801 45.0021 27.8366L45.7408 28.0354C45.9302 28.0851 46.1409 28.1538 46.3729 28.2414C46.6072 28.329 46.831 28.4485 47.044 28.6001C47.2595 28.7492 47.437 28.941 47.5767 29.1753C47.7164 29.4097 47.7862 29.6974 47.7862 30.0383C47.7862 30.4313 47.6832 30.7864 47.4773 31.1036C47.2737 31.4208 46.9754 31.673 46.5824 31.86C46.1918 32.047 45.7171 32.1405 45.1584 32.1405C44.6375 32.1405 44.1866 32.0565 43.8054 31.8884C43.4266 31.7203 43.1283 31.4859 42.9105 31.1853C42.6951 30.8846 42.5732 30.5354 42.5447 30.1377H43.4538C43.4775 30.4123 43.5698 30.6396 43.7308 30.8195C43.8942 30.9971 44.1001 31.1296 44.3487 31.2172C44.5997 31.3025 44.8696 31.3451 45.1584 31.3451C45.4946 31.3451 45.7964 31.2906 46.0639 31.1817C46.3314 31.0705 46.5433 30.9166 46.6996 30.7201C46.8558 30.5212 46.9339 30.2892 46.9339 30.0241C46.9339 29.7826 46.8665 29.5861 46.7315 29.4346C46.5966 29.2831 46.419 29.1599 46.1989 29.0653C45.9787 28.9706 45.7408 28.8877 45.4851 28.8167L44.5902 28.561C44.022 28.3976 43.5722 28.1644 43.2408 27.8614C42.9093 27.5584 42.7436 27.1618 42.7436 26.6718C42.7436 26.2646 42.8537 25.9095 43.0739 25.6064C43.2964 25.301 43.5947 25.0643 43.9688 24.8962C44.3452 24.7258 44.7654 24.6405 45.2294 24.6405C45.6982 24.6405 46.1148 24.7246 46.4794 24.8927C46.844 25.0584 47.1328 25.2857 47.3459 25.5745C47.5613 25.8633 47.675 26.1912 47.6868 26.5581H46.8345Z" fill="#0A0224"/>
</svg>
